PathFileType	4	(X/Y/Z)	D:\Share\Shared_Data\Ergonomics\Sit To Stand Pertubation\S2\Unperturbed.trc
DataRate	CameraRate	NumFrames	NumMarkers	Units	OrigDataRate	OrigDataStartFrame	OrigNumFrames	
100	100	17	18	m	100	4491	241
Frame#	Time	R_Toe			R_ASIS			R_Pelvis			V_Sacral			L_Pelvis			L_ASIS			Clavical			R_Acromium			L_Acromium			Sternum			Torso			R_Thigh_Med			R_Thigh_Lat			R_Thigh			R_Shank_Med			R_Shank_Lat			R_Shank			R_Heel			
		X1	Y1	Z1	X2	Y2	Z2	X3	Y3	Z3	X4	Y4	Z4	X5	Y5	Z5	X6	Y6	Z6	X7	Y7	Z7	X8	Y8	Z8	X9	Y9	Z9	X10	Y10	Z10	X11	Y11	Z11	X12	Y12	Z12	X13	Y13	Z13	X14	Y14	Z14	X15	Y15	Z15	X16	Y16	Z16	X17	Y17	Z17	X18	Y18	Z18	

4491	44.9	0.44226456	0.065589317	0.1480244	-0.012473239	0.64234644	0.14101257	-0.091666252	0.63907349	0.17938943	-0.22369716	0.57125488	0.02364592	-0.13451918	0.63387897	-0.15859012	-0.038859985	0.65190558	-0.12990631	0.048820244	1.0140446	0.0013301045	-0.039695438	1.0493868	0.2062039	-0.053093868	1.0543888	-0.18224036	0.070818977	0.85008344	0.00027961668	0.049866116	0.97107703	-0.11449428	0.38688025	0.50235812	0.12425316	0.35817856	0.50914902	0.22830966	0.19906294	0.62172791	0.17497975	0.30612836	0.10971368	0.11212123	0.28713367	0.10271567	0.20414085	0.34788873	0.35778577	0.24102361	0.20440189	0.061604675	0.15142072
4492	44.91	0.44222122	0.065619667	0.14802856	-0.012281111	0.64218335	0.14101512	-0.091530418	0.63926019	0.17931618	-0.22383138	0.5715744	0.023642435	-0.13438196	0.63406085	-0.1587477	-0.038465855	0.65195325	-0.12995085	0.052987366	1.0125989	0.0010658797	-0.035063126	1.0490099	0.20595789	-0.048633347	1.053825	-0.18247055	0.073344864	0.84843555	0.00013187768	0.053522263	0.96955627	-0.11472549	0.38649829	0.50230014	0.12420465	0.35784848	0.50913232	0.22822816	0.19881116	0.62176642	0.17492551	0.30605527	0.10967931	0.11212355	0.28708221	0.1026793	0.20413419	0.34760767	0.35778131	0.24099301	0.20434621	0.061582073	0.15142778
4493	44.92	0.44218076	0.065648819	0.14803168	-0.012046589	0.64201593	0.14102016	-0.091366821	0.63944104	0.17924423	-0.22392722	0.57192493	0.023629663	-0.13417809	0.63425031	-0.15889233	-0.038036743	0.65196411	-0.1300098	0.057368671	1.0110286	0.00079817396	-0.030193872	1.0485408	0.20571347	-0.043929367	1.0531641	-0.1826913	0.075998283	0.84666742	-5.7488345e-06	0.057355278	0.96789917	-0.11495448	0.38614615	0.50224359	0.12415024	0.35754138	0.5091188	0.22814493	0.19857889	0.62181177	0.17486629	0.30598837	0.10964886	0.11212713	0.28703162	0.10264294	0.20412929	0.34733228	0.35778006	0.24096088	0.20429126	0.061587891	0.15145534
4494	44.93	0.44214407	0.065676308	0.14803438	-0.011751589	0.64184961	0.14102736	-0.0911614	0.63961707	0.1791718	-0.22397768	0.57231299	0.023607635	-0.13389877	0.63445325	-0.15901129	-0.037566788	0.65193567	-0.13008214	0.061961792	1.0093293	0.00052386487	-0.025087793	1.0479717	0.20546983	-0.038980827	1.052403	-0.18290575	0.078785118	0.8447796	-0.00013408221	0.061369747	0.96610645	-0.11517924	0.3858269	0.50218796	0.12409216	0.35726141	0.50911005	0.22806671	0.19836839	0.62185742	0.17480061	0.30592801	0.10962404	0.11213446	0.28698279	0.10260622	0.20412978	0.34706522	0.35778323	0.24093159	0.20423898	0.061613415	0.15149852
4495	44.94	0.44211182	0.065701942	0.14803694	-0.011372413	0.64169324	0.14103558	-0.090898796	0.63978918	0.1790936	-0.22397595	0.57274451	0.023576399	-0.13353914	0.63467523	-0.15910007	-0.037043869	0.65187115	-0.1301644	0.066762917	1.0074971	0.00024268937	-0.019744595	1.0472971	0.20522713	-0.033787014	1.0515414	-0.18311778	0.081709724	0.8427738	-0.00025330213	0.065571709	0.96418121	-0.11539572	0.38554401	0.50213303	0.12403355	0.35701279	0.50910855	0.22799687	0.19818259	0.62189691	0.1747253	0.3058746	0.10960654	0.11214881	0.28693613	0.10256876	0.20413992	0.34681	0.35779361	0.24090984	0.20419006	0.061651119	0.15155304
4496	44.95	0.44208426	0.065725662	0.14803918	-0.010885135	0.64155548	0.14104279	-0.090563187	0.63995721	0.17900101	-0.22391536	0.57322467	0.023537029	-0.13309743	0.6349212	-0.15916106	-0.03645158	0.65177728	-0.13025244	0.071767006	1.0055289	-4.2464957e-05	-0.014164361	1.0465123	0.20498737	-0.028346638	1.0505787	-0.18333099	0.084773972	0.8406532	-0.00036355951	0.069966797	0.96212854	-0.11559891	0.38530225	0.50207938	0.12397808	0.35680005	0.50911749	0.22793623	0.1980255	0.62192725	0.17463809	0.30582825	0.1095979	0.11217381	0.28689188	0.10253008	0.20416443	0.34657025	0.3578147	0.24089948	0.20414455	0.061694656	0.15161523
4497	44.96	0.44206137	0.065747795	0.14804048	-0.010273255	0.64144	0.14104478	-0.090139435	0.64012091	0.17888426	-0.22378961	0.57375897	0.023491928	-0.13257339	0.63519611	-0.15919995	-0.035773788	0.65166174	-0.13034346	0.076968452	1.0034231	-0.00032571265	-0.0083478832	1.0456136	0.20475322	-0.022657598	1.0495155	-0.18354689	0.087977455	0.83842267	-0.00046549696	0.074557495	0.95995325	-0.11578452	0.38510803	0.50202823	0.12392955	0.3566283	0.50913977	0.22788448	0.19790219	0.6219494	0.1745387	0.30578867	0.10959931	0.11221284	0.28684985	0.10248949	0.20420772	0.3463494	0.35784964	0.24090285	0.20410231	0.061738659	0.15168199
4498	44.97	0.44204269	0.065768875	0.14804045	-0.0095354643	0.6413399	0.14103505	-0.089615028	0.64028058	0.17873651	-0.22359338	0.57435229	0.023443871	-0.13196706	0.63550458	-0.15922324	-0.034998066	0.65153143	-0.1304369	0.082362152	1.0011792	-0.00060031152	-0.002296562	1.0445985	0.20452641	-0.01671838	1.0483516	-0.18376439	0.091318535	0.8360882	-0.00055996466	0.079342545	0.9576593	-0.11594968	0.38496814	0.50198071	0.1238907	0.35650299	0.50917722	0.22784056	0.1978187	0.6219668	0.17442801	0.30575546	0.10961131	0.1122682	0.28680957	0.10244613	0.20427277	0.3461503	0.35789969	0.24092027	0.2040632	0.06177861	0.15175046
4499	44.98	0.44202765	0.06578933	0.14803923	-0.0086942549	0.64123273	0.14100639	-0.088982307	0.64043854	0.17855646	-0.22332222	0.57500934	0.023394798	-0.13127727	0.63585046	-0.15923749	-0.03411404	0.65139264	-0.13053278	0.087943672	0.99879718	-0.00086252898	0.0039879036	1.0434646	0.20430742	-0.010529304	1.0470872	-0.18398181	0.09479586	0.83365662	-0.00064675534	0.084318359	0.95524976	-0.11609299	0.38488846	0.50193607	0.12386176	0.35642929	0.50922894	0.22780249	0.19778156	0.62198358	0.17430707	0.305728	0.10963348	0.11234044	0.28677045	0.10239962	0.20435991	0.34597684	0.35796414	0.24095	0.20402739	0.061811066	0.15181828
4500	44.99	0.44201544	0.065809174	0.1480377	-0.0078048272	0.64107605	0.14095406	-0.088240097	0.64060168	0.17834926	-0.22297301	0.57573401	0.02334581	-0.13050113	0.63623462	-0.15924867	-0.033109074	0.65125195	-0.13062981	0.093708786	0.99627643	-0.0011130868	0.010503699	1.0422106	0.20409621	-0.0040924354	1.0457234	-0.1841978	0.098409164	0.83113348	-0.00072401196	0.089481415	0.95272797	-0.11621459	0.3848725	0.5018916	0.12383954	0.35641144	0.50929123	0.22776622	0.19779688	0.62200293	0.17417627	0.30570535	0.10966434	0.11242767	0.28673209	0.10235032	0.20446635	0.34583401	0.35803964	0.24098814	0.20399509	0.061833954	0.15188405
4501	45	0.44200504	0.065828079	0.14803651	-0.0069537983	0.64080774	0.14087823	-0.087393784	0.64078101	0.17812601	-0.2225432	0.57652905	0.023297598	-0.12963359	0.63665497	-0.15926064	-0.031967316	0.65111584	-0.13072581	0.099653267	0.99361609	-0.0013552521	0.017248693	1.0408367	0.2038924	0.0025892153	1.044262	-0.18441034	0.1021591	0.82852148	-0.00078929144	0.094829628	0.95009778	-0.11631583	0.38492007	0.50184305	0.12381702	0.3564519	0.50935782	0.22772505	0.19786919	0.622026	0.17403517	0.30568655	0.10970144	0.11252574	0.28669464	0.10229926	0.20458696	0.34572882	0.35812085	0.24102832	0.20396687	0.061846767	0.15194785
4502	45.01	0.44199561	0.065845428	0.14803564	-0.0062294497	0.64036786	0.14078342	-0.086452477	0.6409884	0.17790276	-0.22203008	0.57739606	0.023249956	-0.12866759	0.63710742	-0.15927373	-0.030671848	0.65098853	-0.13081886	0.10577294	0.99081549	-0.0015927607	0.024219986	1.0393435	0.20369553	0.0095123758	1.042705	-0.18461577	0.10604652	0.82581946	-0.0008406592	0.10036286	0.94736365	-0.11639939	0.3850274	0.50178571	0.1237834	0.35655145	0.50942123	0.22766992	0.19800085	0.62205206	0.17388219	0.30567084	0.10974153	0.11262894	0.28665903	0.10224778	0.20471518	0.3456694	0.35820114	0.24106198	0.20394348	0.061850628	0.15201132
4503	45.02	0.44198642	0.065860741	0.14803464	-0.0056689429	0.63973608	0.14067563	-0.085423363	0.64123175	0.1776964	-0.22143074	0.57833655	0.023200996	-0.1275946	0.63758752	-0.15928418	-0.0292069	0.65087109	-0.13090738	0.11206387	0.98787476	-0.0018289689	0.031413582	1.0377322	0.20350546	0.016673946	1.0410538	-0.1848103	0.11007107	0.82302356	-0.00087739319	0.10608276	0.94452942	-0.11646896	0.38518878	0.50171573	0.12372519	0.35670947	0.50947482	0.22759033	0.19819214	0.62207928	0.17371463	0.30565799	0.10978126	0.11273122	0.28662656	0.10219716	0.20484418	0.34566473	0.35827441	0.24107945	0.20392587	0.06184787	0.15207736
4504	45.03	0.44197681	0.065873642	0.14803316	-0.0052229438	0.63895844	0.14056053	-0.08430542	0.6415108	0.17751768	-0.22074231	0.57935132	0.023147385	-0.12640457	0.63809131	-0.15928581	-0.027561985	0.6507605	-0.13098941	0.11852343	0.9847948	-0.0020661166	0.038824955	1.0360035	0.20332249	0.024071321	1.0393092	-0.18499182	0.1142302	0.82013043	-0.00090160477	0.11199255	0.94159802	-0.11652822	0.38539847	0.5016308	0.1236283	0.35692508	0.50951337	0.22747604	0.1984415	0.62210535	0.17352881	0.30564886	0.1098177	0.11282695	0.28659866	0.10214863	0.20496732	0.34572287	0.35833563	0.24107039	0.20391492	0.061840893	0.15214888
4505	45.04	0.44196613	0.065883858	0.14803148	-0.0047732854	0.63813361	0.14044186	-0.083088364	0.64181897	0.17736696	-0.21996199	0.58044067	0.0230851	-0.12508636	0.63861615	-0.15927335	-0.025738535	0.65064716	-0.13106184	0.12515202	0.9815791	-0.0023043382	0.046450302	1.0341589	0.20314656	0.031702843	1.0374692	-0.18516141	0.1185192	0.81714062	-0.0009196279	0.11809667	0.93857141	-0.11658004	0.38565286	0.50152951	0.12348048	0.35719846	0.50953424	0.2273187	0.19874654	0.62212805	0.17332033	0.30564456	0.10984851	0.11291106	0.28657626	0.10210329	0.2050786	0.34584903	0.35838098	0.24102451	0.20391068	0.061830704	0.15222697
4506	45.05	0.4419534	0.06589122	0.14803012	-0.0041952634	0.6373609	0.14031978	-0.081759399	0.64214795	0.17723634	-0.21908635	0.58160529	0.023010239	-0.12362932	0.63916113	-0.15924397	-0.02375425	0.65051569	-0.13111992	0.13195497	0.97823395	-0.0025414884	0.054287323	1.0322001	0.20297592	0.03956818	1.035532	-0.1853241	0.12293465	0.81405981	-0.00094021022	0.12440015	0.93545074	-0.11662613	0.38595163	0.50141	0.12327422	0.35753214	0.50953598	0.22711375	0.19910551	0.6221449	0.1730847	0.30564575	0.1098718	0.11297936	0.28655948	0.10206165	0.20517284	0.34604407	0.35840671	0.24093253	0.20391174	0.061815491	0.1523092
4507	45.06	0.4419375	0.065895828	0.14802965	-0.0034110992	0.63669543	0.14019092	-0.080310623	0.64249011	0.17711638	-0.21811086	0.58284595	0.022919498	-0.12202425	0.63972778	-0.15919702	-0.021641653	0.65034619	-0.1311575	0.13894209	0.97476672	-0.0027740073	0.062334888	1.0301289	0.20280684	0.047667915	1.0334945	-0.18548718	0.12747909	0.81089471	-0.00097018689	0.13090765	0.93223627	-0.11666595	0.38629807	0.50126941	0.12300867	0.35793109	0.50951779	0.22686171	0.19951907	0.62215295	0.17281789	0.30565237	0.10988602	0.11302885	0.28654691	0.1020232	0.20524586	0.3463046	0.35840945	0.2407881	0.20391466	0.061790428	0.15238904
